<svg xmlns="http://www.w3.org/2000/svg" width="295" height="258" aria-hidden="false" aria-label="Interactive chart" style="font-family:Roboto;font-size:12px"><rect width="295" height="258" fill="#fff" aria-hidden="true" rx="0" ry="0"/><path fill="none" d="M10 10h275v195H10z" aria-hidden="true"/><path fill="none" d="M10 10h275v195H10z" aria-hidden="true" data-z-index="1"/><g aria-hidden="false" data-z-index="3"><g stroke="#fff" stroke-linejoin="round" aria-hidden="false" data-z-index=".1" style="cursor:pointer"><path fill="#3dd1c4" d="M137.485 25.5a72 72 0 1 1-62.303 108.062L137.5 97.5Z" aria-label="Success, 80." style="outline:0" tabindex="-1" transform="translate(10 10)"/><path fill="#f07474" d="M75.146 133.5A72 72 0 0 1 65.5 97.543l72-.043Z" aria-label="Failed, 10." style="outline:0" tabindex="-1" transform="translate(10 10)"/><path fill="#5ea5e9" d="M65.5 97.47a72 72 0 0 1 71.9-71.97l.1 72Z" aria-label="No Status, 30." style="outline:0" tabindex="-1" transform="translate(10 10)"/></g></g><g stroke-linecap="round" aria-hidden="true" data-z-index="3" style="cursor:pointer" transform="translate(261 10)"><rect width="24" height="22" x=".5" y=".5" fill="#fff" rx="2" ry="2"/><path fill="#666" stroke="#666" stroke-width="3" d="M6 6.5h14m-14 5h14m-14 5h14" data-z-index="1"/></g><g aria-hidden="true" data-z-index="7" transform="translate(23 217)"><rect width="249" height="26" fill="none" rx="0" ry="0"/><g data-z-index="1"><g data-z-index="1" transform="translate(8 3)"><text x="21" y="15" data-z-index="2" font-family="Roboto-Regular,Roboto" style="color:#333;cursor:pointer;font-size:12px;font-weight:700;fill:#333">Success</text><rect width="12" height="12" x="2" y="4" fill="#3dd1c4" data-z-index="3" rx="6" ry="6"/></g><g data-z-index="1" transform="translate(94.642 3)"><text x="21" y="15" data-z-index="2" font-family="Roboto-Regular,Roboto" style="color:#333;cursor:pointer;font-size:12px;font-weight:700;fill:#333">Failed</text><rect width="12" height="12" x="2" y="4" fill="#f07474" data-z-index="3" rx="6" ry="6"/></g><g data-z-index="1" transform="translate(167.584 3)"><text x="21" y="15" data-z-index="2" font-family="Roboto-Regular,Roboto" style="color:#333;cursor:pointer;font-size:12px;font-weight:700;fill:#333">No Status</text><rect width="12" height="12" x="2" y="4" fill="#5ea5e9" data-z-index="3" rx="6" ry="6"/></g></g></g></svg>