<svg xmlns="http://www.w3.org/2000/svg" width="1031" height="225" aria-hidden="false" aria-label="Interactive chart" style="font-family:Roboto;font-size:12px"><rect width="1031" height="225" fill="#fff" aria-hidden="true" rx="0" ry="0"/><path fill="none" d="M44 10h977v141H44z" aria-hidden="true"/><path fill="none" d="M44 10h977v141H44z" aria-hidden="true" data-z-index="1"/><g fill="none" aria-hidden="true" data-z-index="1"><path d="M206.5 10v141M369.5 10v141M531.5 10v141M694.5 10v141M857.5 10v141M1020.5 10v141M43.5 10v141" data-z-index="1"/></g><g fill="none" stroke="#e6e6e6" aria-hidden="true" data-z-index="1"><path d="M44 104.5h977M44 57.5h977M44 9.5h977M44 151.5h977" data-z-index="1"/></g><g aria-hidden="true" data-z-index="2"><path fill="none" stroke="#ccd6eb" d="M44 151.5h977" data-z-index="7"/></g><g aria-hidden="true" data-z-index="2"><path fill="none" d="M44 10v141" data-z-index="7"/></g><g aria-hidden="false" data-z-index="3"><g fill="none" stroke-linecap="round" stroke-linejoin="round" aria-hidden="true" clip-path="url(#highcharts-sjmvate-450-)" data-z-index=".1" transform="translate(44 10)"><path stroke="#4fdfe1" stroke-width="2" d="M81.417 94.94s97.7 13.16 162.833 13.16 97.7-8.46 162.833-14.1c65.134-5.64 97.7 0 162.834-14.1 65.133-14.1 97.7-74.73 162.833-74.73S895.583 56.4 895.583 56.4" data-z-index="1"/><path stroke="rgba(192,192,192,0.0001)" stroke-width="22" d="M81.417 94.94s97.7 13.16 162.833 13.16 97.7-8.46 162.833-14.1c65.134-5.64 97.7 0 162.834-14.1 65.133-14.1 97.7-74.73 162.833-74.73S895.583 56.4 895.583 56.4" data-z-index="2" style="cursor:pointer"/></g><g fill="#4fdfe1" aria-hidden="false" aria-label="Requests, line 1 of 2 with 6 data points." data-z-index=".1" style="cursor:pointer;outline:0" tabindex="-1"><path d="M81 98.94a4 4 0 1 1 .004 0Z" aria-label="January, 98. Requests." style="outline:0" tabindex="-1" transform="translate(44 10)"/><path d="M244 112.1a4 4 0 1 1 .004 0Z" aria-label="Fabuary, 70. Requests." style="outline:0" tabindex="-1" transform="translate(44 10)"/><path d="M407 98a4 4 0 1 1 .004 0Z" aria-label="March, 100. Requests." style="outline:0" tabindex="-1" transform="translate(44 10)"/><path d="M569 83.9a4 4 0 1 1 .004 0Z" aria-label="April, 130. Requests." style="outline:0" tabindex="-1" transform="translate(44 10)"/><path d="M732 9.17a4 4 0 1 1 .004 0Z" aria-label="June, 289. Requests." style="outline:0" tabindex="-1" transform="translate(44 10)"/><path d="M895 60.4a4 4 0 1 1 .004 0Z" aria-label="July, 180. Requests." style="outline:0" tabindex="-1" transform="translate(44 10)"/></g><g fill="none" stroke-linecap="round" stroke-linejoin="round" aria-hidden="true" clip-path="url(#highcharts-sjmvate-450-)" data-z-index=".1" transform="translate(44 10)"><path stroke="#94d13d" stroke-width="2" d="M81.417 100.11s97.7 7.99 162.833 7.99 97.7-8.93 162.833-13.16c65.134-4.23 97.7 0 162.834-7.99 65.133-7.99 97.7-63.45 162.833-63.45S895.583 94 895.583 94" data-z-index="1"/><path stroke="rgba(192,192,192,0.0001)" stroke-width="22" d="M81.417 100.11s97.7 7.99 162.833 7.99 97.7-8.93 162.833-13.16c65.134-4.23 97.7 0 162.834-7.99 65.133-7.99 97.7-63.45 162.833-63.45S895.583 94 895.583 94" data-z-index="2" style="cursor:pointer"/></g><g fill="#94d13d" aria-hidden="false" aria-label="Done, line 2 of 2 with 6 data points." data-z-index=".1" style="cursor:pointer;outline:0" tabindex="-1"><path d="m81 96.11 4 4-4 4-4-4Z" aria-label="January, 87. Done." style="outline:0" tabindex="-1" transform="translate(44 10)"/><path d="m244 104.1 4 4-4 4-4-4Z" aria-label="Fabuary, 70. Done." style="outline:0" tabindex="-1" transform="translate(44 10)"/><path d="m407 90.94 4 4-4 4-4-4Z" aria-label="March, 98. Done." style="outline:0" tabindex="-1" transform="translate(44 10)"/><path d="m569 82.95 4 4-4 4-4-4Z" aria-label="April, 115. Done." style="outline:0" tabindex="-1" transform="translate(44 10)"/><path d="m732 19.5 4 4-4 4-4-4Z" aria-label="June, 250. Done." style="outline:0" tabindex="-1" transform="translate(44 10)"/><path d="m895 90 4 4-4 4-4-4Z" aria-label="July, 100. Done." style="outline:0" tabindex="-1" transform="translate(44 10)"/></g></g><g stroke-linecap="round" aria-hidden="true" data-z-index="3" style="cursor:pointer" transform="translate(997 10)"><rect width="24" height="22" x=".5" y=".5" fill="#fff" rx="2" ry="2"/><path fill="#666" stroke="#666" stroke-width="3" d="M6 6.5h14m-14 5h14m-14 5h14" data-z-index="1"/></g><g aria-hidden="true" data-z-index="7" transform="translate(437 184)"><rect width="156" height="26" fill="none" rx="0" ry="0"/><g data-z-index="1"><g data-z-index="1"><path fill="none" stroke="#4fdfe1" stroke-width="2" d="M8 14h16"/><path fill="#4fdfe1" d="M16 18a4 4 0 1 1 .004 0Z"/><text x="21" y="15" data-z-index="2" font-family="Roboto-Regular,Roboto" style="color:#333;cursor:pointer;font-size:12px;font-weight:700;fill:#333" transform="translate(8 3)">Requests</text></g><g data-z-index="1"><path fill="none" stroke="#94d13d" stroke-width="2" d="M99.046 14h16"/><path fill="#94d13d" d="m107.046 10 4 4-4 4-4-4Z"/><text x="21" y="15" data-z-index="2" font-family="Roboto-Regular,Roboto" style="color:#333;cursor:pointer;font-size:12px;font-weight:700;fill:#333" transform="translate(99.046 3)">Done</text></g></g></g><g aria-hidden="true" data-z-index="7" font-family="Roboto-Regular,Roboto" text-anchor="middle"><text x="125.417" y="170" style="color:#666;cursor:default;font-size:11px;fill:#666">January</text><text x="288.25" y="170" style="color:#666;cursor:default;font-size:11px;fill:#666">Fabuary</text><text x="451.083" y="170" style="color:#666;cursor:default;font-size:11px;fill:#666">March</text><text x="613.917" y="170" style="color:#666;cursor:default;font-size:11px;fill:#666">April</text><text x="776.75" y="170" style="color:#666;cursor:default;font-size:11px;fill:#666">June</text><text x="939.583" y="170" style="color:#666;cursor:default;font-size:11px;fill:#666">July</text></g><g aria-hidden="true" data-z-index="7" font-family="Roboto-Regular,Roboto" text-anchor="end"><text x="29" y="108" style="color:#666;cursor:default;font-size:11px;fill:#666">100</text><text x="29" y="61" style="color:#666;cursor:default;font-size:11px;fill:#666">200</text><text x="29" y="14" style="color:#666;cursor:default;font-size:11px;fill:#666">300</text><text x="29" y="155" style="color:#666;cursor:default;font-size:11px;fill:#666">0</text></g></svg>