<svg xmlns="http://www.w3.org/2000/svg" width="661" height="342" aria-hidden="false" aria-label="Interactive chart" style="font-family:Roboto;font-size:12px"><rect width="661" height="342" fill="#fff" aria-hidden="true" rx="0" ry="0"/><path fill="none" d="M44 10h607v224H44z" aria-hidden="true"/><path fill="none" d="M44 10h607v224H44z" aria-hidden="true" data-z-index="1"/><g fill="none" aria-hidden="true" data-z-index="1"><path d="M94.5 10v224M144.5 10v224M195.5 10v224M245.5 10v224M296.5 10v224M346.5 10v224M397.5 10v224M448.5 10v224M498.5 10v224M549.5 10v224M599.5 10v224M650.5 10v224M43.5 10v224" data-z-index="1"/></g><g fill="none" stroke="#e6e6e6" aria-hidden="true" data-z-index="1"><path d="M44 234.5h607M44 9.5h607M44 178.5h607M44 122.5h607M44 66.5h607" data-z-index="1"/></g><g aria-hidden="true" data-z-index="2"><path fill="none" stroke="#ccd6eb" d="M44 234.5h607" data-z-index="7"/></g><g aria-hidden="true" data-z-index="2"><path fill="none" d="M44 10v224" data-z-index="7"/></g><g aria-hidden="false" data-z-index="3"><g aria-hidden="false" clip-path="url(#highcharts-tvfq72q-469-)" data-z-index=".1" style="cursor:pointer" transform="translate(44 10)"><path fill="#7fc7eb" d="M16 70h19v155H16z" aria-label="January, 69. Volunteers." style="outline:0" tabindex="-1"/><path fill="#7fc7eb" d="M67 135h19v90H67z" aria-label="February, 40. Volunteers." style="outline:0" tabindex="-1"/><path fill="#7fc7eb" d="M117 30h19v195h-19z" aria-label="March, 87. Volunteers." style="outline:0" tabindex="-1"/><path fill="#7fc7eb" d="M168 158h19v67h-19z" aria-label="April, 30. Volunteers." style="outline:0" tabindex="-1"/><path fill="#7FC7EB" d="M219 158h19v67h-19z" aria-label="May, 30. Volunteers." style="outline:0" tabindex="-1"/><path fill="#7fc7eb" d="M269 59h19v166h-19z" aria-label="June, 74. Volunteers." style="outline:0" tabindex="-1"/><path fill="#7fc7eb" d="M320 135h19v90h-19z" aria-label="July, 40. Volunteers." style="outline:0" tabindex="-1"/><path fill="#7FC7EB" d="M370 153h19v72h-19z" aria-label="August, 32. Volunteers." style="outline:0" tabindex="-1"/><path fill="#7FC7EB" d="M421 48h19v177h-19z" aria-label="September, 79. Volunteers." style="outline:0" tabindex="-1"/><path fill="#7fc7eb" d="M471 142h19v83h-19z" aria-label="October, 37. Volunteers." style="outline:0" tabindex="-1"/><path fill="#7fc7eb" d="M522 129h19v96h-19z" aria-label="November, 43. Volunteers." style="outline:0" tabindex="-1"/><path fill="#7FC7EB" d="M573 23h19v202h-19z" aria-label="December, 90. Volunteers." style="outline:0" tabindex="-1"/></g></g><g stroke-linecap="round" aria-hidden="true" data-z-index="3" style="cursor:pointer" transform="translate(627 10)"><rect width="24" height="22" x=".5" y=".5" fill="#fff" rx="2" ry="2"/><path fill="#666" stroke="#666" stroke-width="3" d="M6 6.5h14m-14 5h14m-14 5h14" data-z-index="1"/></g><g aria-hidden="true" data-z-index="7" transform="translate(283 301)"><rect width="95" height="26" fill="none" rx="0" ry="0"/><g data-z-index="1" transform="translate(8 3)"><text x="21" y="15" data-z-index="2" font-family="Roboto-Regular,Roboto" style="color:#333;cursor:pointer;font-size:12px;font-weight:700;fill:#333">Volunteers</text><rect width="12" height="12" x="2" y="4" fill="#7fc7eb" data-z-index="3" rx="6" ry="6"/></g></g><g aria-hidden="true" data-z-index="7" font-family="Roboto-Regular,Roboto" text-anchor="end"><text x="71.884" y="250" style="color:#666;cursor:default;font-size:11px;fill:#666" transform="rotate(-45 71.884 250)">January</text><text x="122.468" y="250" style="color:#666;cursor:default;font-size:11px;fill:#666" transform="rotate(-45 122.468 250)">February</text><text x="173.051" y="250" style="color:#666;cursor:default;font-size:11px;fill:#666" transform="rotate(-45 173.051 250)">March</text><text x="223.634" y="250" style="color:#666;cursor:default;font-size:11px;fill:#666" transform="rotate(-45 223.634 250)">April</text><text x="274.218" y="250" style="color:#666;cursor:default;font-size:11px;fill:#666" transform="rotate(-45 274.218 250)">May</text><text x="324.801" y="250" style="color:#666;cursor:default;font-size:11px;fill:#666" transform="rotate(-45 324.801 250)">June</text><text x="375.384" y="250" style="color:#666;cursor:default;font-size:11px;fill:#666" transform="rotate(-45 375.384 250)">July</text><text x="425.968" y="250" style="color:#666;cursor:default;font-size:11px;fill:#666" transform="rotate(-45 425.968 250)">August</text><text x="476.551" y="250" style="color:#666;cursor:default;font-size:11px;fill:#666" transform="rotate(-45 476.551 250)">September</text><text x="527.134" y="250" style="color:#666;cursor:default;font-size:11px;fill:#666" transform="rotate(-45 527.134 250)">October</text><text x="577.718" y="250" style="color:#666;cursor:default;font-size:11px;fill:#666" transform="rotate(-45 577.718 250)">November</text><text x="628.301" y="250" style="color:#666;cursor:default;font-size:11px;fill:#666" transform="rotate(-45 628.301 250)">December</text></g><g aria-hidden="true" data-z-index="7" font-family="Roboto-Regular,Roboto" text-anchor="end"><text x="29" y="238" style="color:#666;cursor:default;font-size:11px;fill:#666">0</text><text x="29" y="14" style="color:#666;cursor:default;font-size:11px;fill:#666">100</text><text x="29" y="182" style="color:#666;cursor:default;font-size:11px;fill:#666">25</text><text x="29" y="126" style="color:#666;cursor:default;font-size:11px;fill:#666">50</text><text x="29" y="70" style="color:#666;cursor:default;font-size:11px;fill:#666">75</text></g></svg>